<svg width="148" height="57" viewBox="0 0 148 57" fill="none" xmlns="http://www.w3.org/2000/svg">
<path d="M20.0754 30.3052C19.9249 30.23 19.6992 30.1548 19.3984 30.1548H18.1948V31.2079H19.436C19.7369 31.2079 19.9249 31.1703 20.0754 31.0574C20.1882 30.9822 20.2634 30.8318 20.2634 30.6813C20.2634 30.4933 20.1882 30.3804 20.0754 30.3052Z" fill="white"/>
<path d="M15.1108 38.6172C14.0201 38.5796 13.0046 38.2411 11.9891 37.4889C11.2745 45.011 14.4338 50.0884 20.6772 53.6615L21.1285 52.5331C16.0887 48.9225 14.9228 44.334 15.1108 38.6172Z" fill="white"/>
<path d="M16.7655 38.3539C16.427 38.4292 16.0509 38.4668 15.7124 38.5044L19.7744 45.4247L18.0443 48.0575C18.5332 48.9977 19.3606 49.8252 19.5487 49.9756L26.1682 37.1504C25.8673 37.0752 25.5664 37 25.3031 36.9624L24.5509 38.1283L23.5354 36.3982C23.1969 36.4358 22.8208 36.4734 22.4823 36.5486L23.9115 39.0309L23.1217 40.2345L21.166 36.8871C20.8651 37 20.5642 37.1128 20.2257 37.2256L22.5199 41.1371L21.7301 42.3407L19.0221 37.677C18.6836 37.7898 18.3828 37.9026 18.0819 37.9778L21.166 43.2433L20.3761 44.4469L16.7655 38.3539Z" fill="white"/>
<path d="M20.4138 50.8031C20.9404 51.1792 21.6926 51.7058 22.4448 52.0443L27.3718 37.6018C27.0709 37.4514 26.8076 37.3385 26.5067 37.2633L20.4138 50.8031Z" fill="white"/>
<path d="M20.1504 34.2544C17.7434 35.0442 15.1106 34.8938 13.6438 33.4646C12.7787 33.8407 11.8761 34.6681 11.5376 35.7212C13.9071 37.865 16.6527 37.5265 19.8496 36.5111C22.5199 35.6836 24.7389 35.6084 27.6726 37.1128L28.0487 36.0221C26.1682 33.9911 22.4447 33.5022 20.1504 34.2544Z" fill="white"/>
<path d="M11.0865 10.7102H10.7103V10.1084C10.7103 10.0332 10.6727 9.99561 10.5975 9.99561H9.88292C9.77008 9.99561 9.73247 10.0708 9.73247 10.1084V10.7102H8.7546V10.1084C8.7546 10.0332 8.71699 9.99561 8.64177 9.99561H7.88955C7.81433 9.99561 7.77672 10.0332 7.77672 10.1084V10.7102H6.79884V10.1084C6.79884 10.0332 6.76123 9.99561 6.68601 9.99561H5.9338C5.85858 9.99561 5.82097 10.0332 5.82097 10.1084V10.7102H5.44486C5.36964 10.7102 5.33203 10.7478 5.33203 10.823V11.0487C5.33203 11.1239 5.36964 11.1615 5.44486 11.1615H5.55769V11.5376C5.55769 11.6129 5.5953 11.6505 5.67053 11.6505H5.82097L5.55769 14.8474H10.9736L10.7103 11.6881H10.8232C10.8984 11.6881 10.936 11.6505 10.936 11.5753V11.1991H11.0488C11.1241 11.1991 11.1617 11.1615 11.1617 11.0863V10.823C11.1993 10.7478 11.1617 10.7102 11.0865 10.7102ZM8.7546 13.7943H7.7015V12.5531C7.7015 12.2899 7.92716 12.0642 8.22805 12.0642C8.52893 12.0642 8.7546 12.2899 8.7546 12.5531V13.7943Z" fill="white"/>
<path d="M7.09958 9.80754C7.43807 9.76993 7.70135 9.39382 7.62613 8.9801C7.73896 9.28099 8.00223 9.58188 8.45356 9.58188C8.64161 9.58188 8.90489 9.50665 9.01772 9.16816C8.98011 9.39382 9.43143 9.99559 9.80754 9.54426C9.99559 9.3186 9.99559 8.9801 9.80754 8.71683C9.61949 8.45355 9.76993 8.15267 9.80754 8.07745C9.46904 8.15267 9.24338 8.41594 9.13055 8.604C9.13055 8.34072 8.98011 8.07744 8.82966 7.85178C8.45356 7.28762 8.75444 6.98673 8.86727 6.8739C7.85179 7.13718 7.47568 7.927 7.51329 8.67922C7.47568 8.56638 7.43807 8.52877 7.36285 8.41594C7.21241 7.96461 7.36285 7.77656 7.40046 7.62612C6.19692 8.19028 6.00887 9.16816 6.49781 9.61949C6.61064 9.61949 6.79869 9.84515 7.09958 9.80754ZM9.50666 8.56638C9.50666 8.604 9.46904 8.75444 9.54427 8.86727C9.6571 9.09294 9.61949 9.24338 9.50666 9.24338C9.28099 9.24338 9.24338 8.79205 9.50666 8.56638ZM8.45356 7.70134C8.41595 7.77656 8.37834 8.11506 8.49117 8.34072C8.67922 8.75444 8.64161 9.05533 8.37834 9.09294C7.85179 9.05533 8.07745 7.88939 8.45356 7.70134ZM6.91152 8.86727C6.98674 8.75444 7.13719 8.71683 7.06197 8.41594C7.25002 8.604 7.28763 8.75444 7.32524 8.79205C7.43807 8.9801 7.43807 9.28099 7.13719 9.28099C6.91152 9.28099 6.79869 9.09294 6.91152 8.86727Z" fill="white"/>
<path d="M16.9912 8.2279C17.4426 8.19029 17.8939 7.73896 17.7434 7.1748C17.8939 7.58852 18.2324 7.8894 18.8718 7.8894C19.135 7.8894 19.4735 7.62613 19.6616 7.32524C19.624 7.62613 19.9249 8.15268 20.4514 8.03984C20.8651 7.92701 21.2036 7.43808 20.7523 6.76108C20.5266 6.42259 20.6395 6.08409 20.7147 5.97126C20.3762 6.04648 20.0377 6.38498 19.8872 6.61064C19.8496 6.34737 19.8872 6.15931 19.4359 5.63277C18.8718 4.95577 19.3231 4.54206 19.4735 4.354C18.1196 4.73011 17.8563 5.55754 17.6306 6.53542C17.593 6.42259 17.5178 6.30976 17.405 6.1217C17.2921 5.93365 17.2921 5.63276 17.405 5.4071C16.0886 6.08409 15.7501 7.25002 16.3895 7.92701C16.3895 8.00223 16.5399 8.2279 16.9912 8.2279ZM20.3386 6.68586C20.301 6.72347 20.301 6.91153 20.3762 7.06197C20.5266 7.32524 20.4514 7.55091 20.301 7.55091C20.0377 7.5133 19.9625 6.91153 20.3386 6.68586ZM18.8342 5.29427C18.7965 5.36949 18.8342 5.89604 19.0222 6.15931C19.2855 6.57303 19.2855 7.21241 18.8342 7.21241C18.0819 7.13719 18.27 5.82082 18.8342 5.29427ZM16.8408 7.13719C16.916 6.98675 17.1417 6.91153 17.0665 6.49781C17.2921 6.79869 17.405 6.94914 17.405 7.02436C17.5178 7.28763 17.5178 7.70135 17.1417 7.73896C16.8784 7.70135 16.6904 7.43808 16.8408 7.13719Z" fill="white"/>
<path d="M29.102 25.6416C30.8321 25.6416 32.5998 25.1903 32.5998 21.8053C32.5998 19.3606 31.5467 18.1947 29.2524 18.1571C27.8984 18.1571 27.8984 18.2323 27.8984 18.7965V24.5885C27.8984 25.4912 28.0489 25.6416 29.102 25.6416Z" fill="white"/>
<path d="M28.5752 7.55086C29.1017 7.51325 29.5907 6.83626 29.4026 6.19687C29.5907 6.6482 29.9668 7.09953 30.6814 7.09953C30.9823 7.06192 31.3584 6.79864 31.584 6.46015C31.5464 6.83626 31.8473 7.51325 32.5243 7.28758C32.9004 7.09953 33.1261 6.46015 32.7124 5.97121C32.4867 5.70794 32.6371 5.219 32.7124 5.14378C32.3363 5.25661 31.9978 5.40705 31.8097 5.67033C31.7721 5.36944 31.7345 5.03095 31.3208 4.54201C30.6438 3.7898 31.2079 3.26325 31.3584 3.0752C29.8163 3.48891 29.0641 5.03095 29.3274 6.08404C29.2522 5.9336 29.1394 5.82077 29.0641 5.67033C28.688 4.99334 28.9889 4.73006 29.0641 4.5044C27.5973 5.29422 27.1084 6.61059 27.8982 7.32519C27.9358 7.24997 28.1991 7.55086 28.5752 7.55086ZM32.3363 5.63272C32.2986 5.67033 32.2986 5.9336 32.3739 6.08404C32.5243 6.42254 32.4491 6.6482 32.2986 6.68581C32.0354 6.6482 31.9602 5.9336 32.3363 5.63272ZM30.7566 4.05307C30.719 4.1659 30.6438 4.73006 30.8318 5.10617C31.1703 5.74555 31.0951 6.23449 30.6438 6.30971C29.8163 6.23449 30.1925 4.35396 30.7566 4.05307ZM28.3119 6.12165C28.3871 5.9336 28.6128 5.85838 28.5376 5.29422C28.7632 5.67033 28.8761 5.89599 28.8761 5.9336C28.9889 6.30971 28.9889 6.79864 28.6128 6.83626C28.3495 6.83626 28.1615 6.49776 28.3119 6.12165Z" fill="white"/>
<path d="M38.8806 15.7876V0.893779L38.655 0.856169C38.4293 0.856169 17.6682 -0.798698 0.743447 8.4159L0.630615 8.49112V17.104H0.668225V33.6526C0.668225 33.8407 0.668225 34.0663 0.668225 34.2544C0.96911 45.1239 7.36292 52.834 18.6837 56.0309C18.7213 56.0309 19.4359 56.219 19.9625 56.219C20.489 56.219 21.2789 56.0309 21.3165 56.0309C27.1461 54.3761 31.697 51.292 34.7811 46.8916C36.9249 43.8075 38.2789 40.1593 38.7302 36.2478V36.1349C38.8054 35.3451 38.8806 34.5177 38.8806 33.6902C38.8806 33.6526 38.8806 33.615 38.8806 33.615V33.5022C38.8806 33.427 38.8806 33.3517 38.8806 33.2765V21.2035V15.7876ZM21.166 55.542C21.0908 55.542 20.4138 55.7301 19.9625 55.7301C19.5112 55.7301 18.7965 55.542 18.7965 55.542C8.41601 52.6084 2.28548 45.8009 1.30761 36.2101H10.8231C11.1992 34.5177 12.5908 33.1637 13.7943 32.75C15.2235 34.1792 17.9315 34.5177 20.3386 33.7278C22.5952 32.9756 26.582 33.4646 28.6129 35.7964L28.4625 36.2478H38.2036C37.1129 45.688 30.9072 52.7964 21.166 55.542ZM7.77664 25.0398C8.15274 25.5287 8.67929 25.7544 9.35628 25.7544C10.0709 25.7544 10.5598 25.5287 10.9359 25.0398C11.312 24.5132 11.4625 23.8739 11.4625 22.7832V18.6836C11.4625 18.1947 11.4625 17.8562 11.0111 17.8186H10.9359V17.4801H13.4558V17.8562H13.3806C12.9293 17.8938 12.9293 18.1947 12.9293 18.7212V23.084C12.9293 23.8363 12.8165 24.5132 12.5908 24.9646C12.1019 26.0177 11.0488 26.5442 9.39389 26.5442C7.73902 26.5442 6.68593 26.0177 6.19699 24.9646C5.97132 24.5132 5.85849 23.8363 5.85849 23.084V18.646C5.85849 18.1571 5.85849 17.8186 5.40716 17.7809H5.33194V17.4048H7.81425V17.7433H7.73902C7.2877 17.7809 7.2877 18.1194 7.2877 18.6084V22.7079C7.25009 23.8739 7.40053 24.5132 7.77664 25.0398ZM20.1881 25.7168C21.8806 25.7168 22.5576 25.1526 22.8585 24.25L22.8961 24.1748H23.2722L23.1594 25.8672L23.1218 25.9048C22.4824 26.2433 21.2789 26.5066 20.3386 26.5066C18.7589 26.5066 17.593 26.1305 16.8784 25.4159C16.0886 24.6261 15.6749 23.4225 15.6749 21.9557C15.6749 20.6017 16.051 19.4734 16.8408 18.6084C17.593 17.7433 18.8718 17.292 20.4514 17.292C21.4669 17.292 22.4824 17.4801 23.1594 17.7809L23.197 17.8186V19.2854H22.8585V19.2102C22.6704 18.3827 21.7302 18.0066 20.3386 18.0066C17.593 18.0066 17.2921 20.7522 17.2921 21.9181C17.1417 22.8208 17.3673 25.7168 20.1881 25.7168ZM25.6417 31.1327V31.6969H22.6704V28.0486H23.385V31.1327H25.6417ZM20.6771 30.0044C20.8651 30.1548 20.978 30.3805 20.978 30.6438C20.978 30.9823 20.8275 31.2455 20.5643 31.4336C20.301 31.6217 19.9249 31.6969 19.4359 31.6969H17.4802V28.0486H19.3231C19.8496 28.0486 20.2258 28.1239 20.4514 28.2743C20.6771 28.4248 20.8275 28.688 20.8275 29.0265C20.8275 29.2522 20.7523 29.4778 20.6019 29.5907C20.5266 29.6659 20.4138 29.7411 20.301 29.7787C20.4514 29.854 20.5642 29.9292 20.6771 30.0044ZM15.9005 28.0486V30.2677C15.9005 30.7566 15.7501 31.1703 15.4116 31.4336C15.0731 31.6969 14.6594 31.8473 14.1328 31.8473C13.5311 31.8473 13.0797 31.6969 12.7412 31.4336C12.4027 31.1327 12.2523 30.7566 12.2523 30.2677V28.0486H12.9669V30.2677C12.9669 30.6062 13.0421 30.8318 13.2678 31.0199C13.4558 31.2079 13.7567 31.2832 14.0952 31.2832C14.4713 31.2832 14.7346 31.2079 14.9227 31.0199C15.1107 30.8318 15.2235 30.6062 15.2235 30.2677V28.0486H15.9005ZM10.6727 29.9292C10.6727 30.4933 10.4846 30.9447 10.1085 31.2832C9.73239 31.584 9.16823 31.7345 8.49124 31.7345H6.87398V28.0863H8.41602C9.16823 28.0863 9.77 28.2367 10.1461 28.5376C10.4846 28.8009 10.6727 29.2898 10.6727 29.9292ZM25.7169 17.8186H25.6417V17.4801H29.666C31.2833 17.4801 32.374 17.8562 33.2014 18.6084C33.9536 19.323 34.3674 20.4513 34.3674 21.7677C34.3674 23.9115 33.4647 25.0022 32.6749 25.5287C31.8474 26.0929 30.832 26.3562 29.4027 26.3562H25.6417V25.9801H25.7169C26.1682 25.9425 26.4691 25.7168 26.5067 25.115V18.7212C26.5067 18.0066 26.0554 17.8186 25.7169 17.8186ZM32.5997 28.0486V31.6969H31.697L31.6594 31.6593L29.478 28.8761V31.6969H28.7634V28.0486H29.666L29.7036 28.0863L31.885 30.8694V28.0486H32.5997ZM27.3718 28.0486V31.6969H26.6572V28.0486H27.3718ZM38.3541 15.7124H1.11955V8.79201C16.916 0.32962 36.0222 1.23228 38.3541 1.38272V15.7124Z" fill="white"/>
<path d="M22.1816 9.35616H21.6926V8.56634C21.6926 8.49112 21.6174 8.41589 21.5422 8.41589H20.6019C20.4515 8.41589 20.4138 8.49112 20.4138 8.56634V9.35616H19.1351V8.56634C19.1351 8.49112 19.0599 8.41589 18.9846 8.41589H18.0444C17.9692 8.41589 17.8939 8.49112 17.8939 8.56634V9.35616H16.6152V8.56634C16.6152 8.4535 16.5776 8.41589 16.4647 8.41589H15.4868C15.4116 8.41589 15.3364 8.49112 15.3364 8.56634V9.35616H14.8475C14.7722 9.35616 14.697 9.43138 14.697 9.5066V9.80749C14.697 9.88271 14.7722 9.95793 14.8475 9.95793H14.9979V10.4469C14.9979 10.5221 15.0731 10.5973 15.1483 10.5973H15.3364L14.9979 14.6593H22.0311L21.6926 10.5973H21.8807C21.9559 10.5973 22.0311 10.5221 22.0311 10.4469V9.99554H22.1816C22.2568 9.99554 22.332 9.92032 22.332 9.8451V9.54421C22.332 9.43138 22.2568 9.35616 22.1816 9.35616ZM19.0223 13.4557H17.8187V11.8385C17.8187 11.5 18.082 11.1991 18.4205 11.1991C18.759 11.1991 19.0223 11.5 19.0223 11.8385V13.4557Z" fill="white"/>
<path d="M7.55103 28.5752V31.1703H8.4913C8.98024 31.1703 9.35634 31.0575 9.61962 30.8695C9.8829 30.6814 9.99573 30.3429 9.99573 29.854C9.99573 29.4403 9.8829 29.1018 9.65723 28.8761C9.43157 28.6504 8.98024 28.5376 8.37846 28.5376H7.55103V28.5752Z" fill="white"/>
<path d="M19.9249 29.3274C20.0378 29.2522 20.0754 29.1394 20.0754 29.0265C20.0754 28.8761 20.0378 28.7632 19.9249 28.688C19.8121 28.6128 19.5864 28.5752 19.3232 28.5752H18.1948V29.4402H19.4736C19.6617 29.4402 19.8121 29.4026 19.9249 29.3274Z" fill="white"/>
<path d="M33.9537 8.60401V7.70136C33.9537 7.58853 33.8785 7.51331 33.7656 7.51331H32.7125C32.5245 7.51331 32.5245 7.58853 32.5245 7.70136V8.60401H31.0577V7.70136C31.0577 7.58853 30.9825 7.51331 30.8696 7.51331H29.7789C29.6661 7.51331 29.5909 7.58853 29.5909 7.70136V8.60401H28.124V7.70136C28.124 7.58853 28.0864 7.51331 27.9736 7.51331H26.8453C26.7325 7.51331 26.6572 7.58853 26.6572 7.70136V8.60401H26.1307C26.0178 8.60401 25.9426 8.67923 25.9426 8.79207V9.13056C25.9426 9.24339 26.0178 9.31861 26.1307 9.31861H26.3187V9.84516C26.3187 9.958 26.394 10.0332 26.5068 10.0332H26.7325L26.3187 14.6593H34.2922L33.8785 10.0332H34.1041C34.217 10.0332 34.2922 9.958 34.2922 9.84516V9.31861H34.4802C34.5931 9.31861 34.6683 9.24339 34.6683 9.13056V8.79207C34.6683 8.67923 34.5931 8.60401 34.4802 8.60401H33.9537ZM30.8696 13.1173H29.478V11.3872C29.478 11.0111 29.7789 10.6726 30.1926 10.6726C30.6063 10.6726 30.9072 10.9735 30.9072 11.3872V13.1173H30.8696Z" fill="white"/>
<path d="M51.8562 17.4801H53.1349C53.7743 17.4801 54.3385 17.4048 54.8274 17.2544C55.3163 17.104 55.6925 16.8783 56.0309 16.615C56.3318 16.3517 56.5951 16.0132 56.7456 15.5995C56.896 15.2234 56.9712 14.7721 56.9712 14.3208C56.9712 13.8694 56.896 13.4557 56.7456 13.0796C56.5951 12.7035 56.3694 12.365 56.0686 12.1017C55.7677 11.8385 55.354 11.6128 54.865 11.4624C54.3761 11.3119 53.8119 11.2367 53.1349 11.2367H49.8628V20.7898H51.8938V17.4801H51.8562ZM51.9314 12.7411H53.2101C53.511 12.7411 53.8119 12.7787 54.0376 12.854C54.2632 12.9292 54.4513 13.042 54.6017 13.1924C54.7522 13.3429 54.865 13.4933 54.9402 13.719C55.0155 13.907 55.0531 14.1327 55.0531 14.396C55.0531 14.9225 54.9026 15.3363 54.6017 15.6371C54.3009 15.938 53.8495 16.0885 53.2101 16.0885H51.9314V12.7411Z" fill="white"/>
<path d="M60.1684 17.104H60.8454C61.0334 17.104 61.1463 17.1416 61.2591 17.1792C61.3343 17.2168 61.4472 17.3296 61.5224 17.4425L63.3653 20.3761C63.5157 20.6394 63.7414 20.7522 64.0799 20.7522H65.8852L63.6662 17.292C63.5909 17.1416 63.4781 17.0288 63.3653 16.9535C63.2525 16.8407 63.1396 16.7655 62.9892 16.6903C63.3277 16.5774 63.5909 16.427 63.8542 16.2389C64.1175 16.0509 64.3055 15.8628 64.4936 15.6372C64.6817 15.4115 64.7945 15.1482 64.8697 14.8473C64.9449 14.5465 65.0201 14.2456 65.0201 13.9447C65.0201 13.531 64.9449 13.1549 64.7945 12.8164C64.644 12.4779 64.4184 12.177 64.1175 11.9513C63.8166 11.688 63.4029 11.5 62.9516 11.3872C62.4626 11.2367 61.8985 11.1615 61.2215 11.1615H58.2126V20.7146H60.206V17.104H60.1684ZM60.0932 12.7411H61.1087C61.7104 12.7411 62.1617 12.854 62.4626 13.1172C62.7635 13.3805 62.914 13.719 62.914 14.1327C62.914 14.3584 62.8763 14.5465 62.8011 14.7345C62.7259 14.9226 62.6131 15.073 62.4626 15.2234C62.3122 15.3739 62.1241 15.4867 61.8985 15.5619C61.6728 15.6372 61.4095 15.6748 61.071 15.6748H60.0932V12.7411Z" fill="white"/>
<path d="M67.3894 19.511C67.8407 19.9623 68.3297 20.3008 68.969 20.5641C69.5708 20.8274 70.2478 20.9402 71 20.9402C71.7522 20.9402 72.4292 20.8274 73.031 20.5641C73.6328 20.3008 74.1593 19.9623 74.6106 19.511C75.062 19.0597 75.3629 18.5331 75.6261 17.9313C75.8518 17.3296 76.0022 16.6526 76.0022 15.9756C76.0022 15.261 75.8894 14.6216 75.6261 14.0198C75.4005 13.4181 75.062 12.8915 74.6106 12.4402C74.1969 11.9889 73.6704 11.6504 73.031 11.3871C72.4292 11.1238 71.7522 11.011 71 11.011C70.2478 11.011 69.5708 11.1238 68.969 11.3871C68.3673 11.6504 67.8407 11.9889 67.3894 12.4402C66.9381 12.8915 66.5996 13.4181 66.3739 14.0198C66.1482 14.6216 66.0354 15.2986 66.0354 15.9756C66.0354 16.6902 66.1482 17.3296 66.3739 17.9313C66.5996 18.5331 66.9381 19.0597 67.3894 19.511ZM68.292 14.6968C68.4049 14.2831 68.6305 13.9446 68.8562 13.6437C69.1195 13.3428 69.4204 13.1548 69.7589 13.0044C70.0974 12.8539 70.5111 12.7787 70.9624 12.7787C71.4137 12.7787 71.8275 12.8539 72.166 13.0044C72.5044 13.1548 72.8053 13.3805 73.0686 13.6437C73.3319 13.9446 73.5199 14.2831 73.6328 14.6968C73.7456 15.1105 73.8208 15.5619 73.8208 16.0884C73.8208 16.615 73.7456 17.0663 73.6328 17.48C73.4823 17.8937 73.2943 18.2322 73.0686 18.5331C72.8053 18.834 72.5044 19.0221 72.166 19.1725C71.8275 19.3229 71.4137 19.3982 70.9624 19.3982C70.5111 19.3982 70.0974 19.3229 69.7589 19.1725C69.4204 19.0221 69.1195 18.7964 68.8562 18.5331C68.5929 18.2322 68.4049 17.8937 68.292 17.48C68.1416 17.0663 68.104 16.615 68.104 16.0884C68.104 15.5619 68.1416 15.0729 68.292 14.6968Z" fill="white"/>
<path d="M79.4626 16.9535H82.9228V15.3739H79.4626V12.7411H83.5621V11.1991H77.5068V20.7522H79.4626V16.9535Z" fill="white"/>
<path d="M91.0465 19.2102H86.947V16.6902H90.1439V15.1858H86.947V12.7411H91.0465V11.1991H84.9536V20.7522H91.0465V19.2102Z" fill="white"/>
<path d="M95.0333 19.3229C94.7325 19.3229 94.4316 19.2853 94.2059 19.1725C93.9803 19.0973 93.7922 18.9844 93.6041 18.8716C93.4161 18.7588 93.2656 18.6836 93.1528 18.5707C93.0024 18.4955 92.8895 18.4203 92.7767 18.4203C92.7015 18.4203 92.5887 18.4579 92.5134 18.4955C92.4382 18.5331 92.363 18.6083 92.3254 18.6836L91.7612 19.6238C91.9493 19.8119 92.1749 19.9999 92.4006 20.1504C92.6639 20.3008 92.9272 20.4513 93.1904 20.5641C93.4537 20.6769 93.7546 20.7521 94.0555 20.8274C94.3564 20.9026 94.6573 20.9026 94.9581 20.9026C95.4847 20.9026 95.9736 20.8274 96.3873 20.6393C96.8011 20.4889 97.1772 20.2632 97.4404 19.9623C97.7413 19.6614 97.9294 19.3229 98.0798 18.9468C98.2303 18.5707 98.3055 18.157 98.3055 17.7057C98.3055 17.292 98.2303 16.9535 98.1174 16.6902C98.0046 16.3893 97.8165 16.1636 97.6285 15.9756C97.4404 15.7875 97.1772 15.5995 96.9139 15.4867C96.6506 15.3738 96.3873 15.261 96.1241 15.1482C95.8608 15.0353 95.5975 14.9601 95.3342 14.8849C95.071 14.8097 94.8453 14.6968 94.6196 14.6216C94.4316 14.5088 94.2435 14.3959 94.1307 14.2455C94.0179 14.0951 93.9426 13.9446 93.9426 13.719C93.9426 13.3805 94.0555 13.1172 94.2811 12.8915C94.5068 12.6659 94.8453 12.5906 95.2966 12.5906C95.5599 12.5906 95.7856 12.6282 95.9736 12.7035C96.1617 12.7787 96.3497 12.8539 96.5002 12.9291C96.6506 13.0044 96.7634 13.0796 96.8763 13.1548C96.9891 13.23 97.1019 13.2676 97.1772 13.2676C97.29 13.2676 97.3652 13.23 97.4404 13.1924C97.5157 13.1548 97.5533 13.0796 97.6285 12.9667L98.1174 12.0265C97.7789 11.688 97.3652 11.4623 96.8763 11.2743C96.3873 11.0862 95.8608 11.011 95.259 11.011C94.7325 11.011 94.2811 11.0862 93.8674 11.2366C93.4537 11.3871 93.1152 11.6128 92.8519 11.876C92.5887 12.1393 92.363 12.4402 92.2126 12.7787C92.0621 13.1172 91.9869 13.4557 91.9869 13.8318C91.9869 14.2831 92.0621 14.6592 92.1749 14.9601C92.2878 15.261 92.4758 15.5243 92.6639 15.7123C92.8519 15.9004 93.1152 16.0884 93.3785 16.2013C93.6418 16.3141 93.905 16.4269 94.1683 16.5398C94.4316 16.615 94.6949 16.7278 94.9581 16.7654C95.2214 16.8406 95.4471 16.9159 95.6727 17.0287C95.8608 17.1415 96.0488 17.2544 96.1617 17.4048C96.2745 17.5552 96.3497 17.7433 96.3497 18.0066C96.3497 18.4203 96.2369 18.7588 95.9736 18.9468C95.8608 19.2101 95.4847 19.3229 95.0333 19.3229Z" fill="white"/>
<path d="M105.489 16.7279C105.376 16.427 105.188 16.2014 105 16.0133C104.812 15.8253 104.549 15.6372 104.285 15.5244C104.022 15.4115 103.759 15.2987 103.496 15.1859C103.232 15.073 102.969 14.9978 102.706 14.9226C102.443 14.8474 102.217 14.7345 101.991 14.6593C101.803 14.5465 101.615 14.4337 101.502 14.2832C101.389 14.1328 101.314 13.9823 101.314 13.7567C101.314 13.4182 101.427 13.1549 101.653 12.9292C101.878 12.7036 102.217 12.6284 102.668 12.6284C102.932 12.6284 103.157 12.666 103.345 12.7412C103.533 12.8164 103.721 12.8916 103.872 12.9668C104.022 13.0421 104.135 13.1173 104.248 13.1925C104.361 13.2677 104.474 13.3053 104.549 13.3053C104.662 13.3053 104.737 13.2677 104.812 13.2301C104.887 13.1925 104.925 13.1173 105 13.0045L105.489 12.0642C105.151 11.7257 104.737 11.5 104.248 11.312C103.759 11.1239 103.232 11.0487 102.631 11.0487C102.104 11.0487 101.653 11.1239 101.239 11.2744C100.825 11.4248 100.487 11.6505 100.224 11.9138C99.9603 12.177 99.7346 12.4779 99.5842 12.8164C99.4337 13.1549 99.3585 13.4934 99.3585 13.8695C99.3585 14.3208 99.4337 14.6969 99.5466 14.9978C99.6594 15.2987 99.8475 15.562 100.036 15.75C100.224 15.9381 100.487 16.1261 100.75 16.239C101.013 16.3518 101.277 16.4646 101.54 16.5775C101.803 16.6527 102.066 16.7655 102.33 16.8031C102.593 16.8784 102.819 16.9536 103.044 17.0664C103.232 17.1792 103.42 17.2921 103.533 17.4425C103.646 17.593 103.721 17.781 103.721 18.0443C103.721 18.458 103.609 18.7965 103.345 18.9846C103.082 19.2102 102.743 19.323 102.255 19.323C101.954 19.323 101.653 19.2854 101.427 19.1726C101.201 19.0974 101.013 18.9846 100.825 18.8717C100.637 18.7589 100.487 18.6837 100.374 18.5708C100.224 18.4956 100.111 18.4204 99.9979 18.4204C99.9227 18.4204 99.8099 18.458 99.7346 18.4956C99.6594 18.5332 99.5842 18.6084 99.5466 18.6837L98.9824 19.6239C99.1705 19.812 99.3961 20 99.6218 20.1505C99.8851 20.3009 100.148 20.4514 100.412 20.5642C100.675 20.677 100.976 20.7523 101.277 20.8275C101.578 20.9027 101.878 20.9027 102.179 20.9027C102.706 20.9027 103.195 20.8275 103.609 20.6394C104.022 20.489 104.398 20.2633 104.662 19.9624C104.962 19.6615 105.151 19.323 105.301 18.9469C105.451 18.5708 105.527 18.1571 105.527 17.7058C105.677 17.3673 105.602 16.9912 105.489 16.7279Z" fill="white"/>
<path d="M109.325 11.1991H107.219V20.7522H109.325V11.1991Z" fill="white"/>
<path d="M119.254 19.511C119.706 19.0597 120.007 18.5331 120.27 17.9313C120.496 17.3296 120.608 16.6526 120.608 15.9756C120.608 15.261 120.496 14.6216 120.27 14.0198C120.044 13.4181 119.706 12.8915 119.254 12.4402C118.803 11.9889 118.314 11.6504 117.675 11.3871C117.073 11.1238 116.396 11.011 115.644 11.011C114.892 11.011 114.215 11.1238 113.613 11.3871C113.011 11.6504 112.485 11.9889 112.033 12.4402C111.582 12.8915 111.243 13.4181 111.018 14.0198C110.792 14.6216 110.679 15.2986 110.679 15.9756C110.679 16.6902 110.792 17.3296 111.018 17.9313C111.243 18.5331 111.582 19.0597 112.033 19.511C112.485 19.9623 112.973 20.3008 113.613 20.5641C114.215 20.8274 114.892 20.9402 115.644 20.9402C116.396 20.9402 117.073 20.8274 117.675 20.5641C118.314 20.3008 118.841 19.9623 119.254 19.511ZM116.885 19.1349C116.546 19.2853 116.133 19.3605 115.681 19.3605C115.23 19.3605 114.816 19.2853 114.478 19.1349C114.139 18.9844 113.839 18.7588 113.575 18.4955C113.312 18.1946 113.124 17.8561 113.011 17.4424C112.898 17.0287 112.823 16.5774 112.823 16.0508C112.823 15.5243 112.898 15.0729 113.011 14.6592C113.162 14.2455 113.35 13.907 113.575 13.6061C113.839 13.3052 114.139 13.1172 114.478 12.9667C114.816 12.8163 115.23 12.7411 115.681 12.7411C116.133 12.7411 116.509 12.8163 116.885 12.9667C117.223 13.1172 117.524 13.3428 117.788 13.6061C118.051 13.907 118.239 14.2455 118.352 14.6592C118.502 15.0729 118.54 15.5243 118.54 16.0508C118.54 16.5774 118.465 17.0287 118.352 17.4424C118.239 17.8561 118.013 18.1946 117.788 18.4955C117.524 18.7588 117.223 18.9844 116.885 19.1349Z" fill="white"/>
<path d="M123.617 15.2234C123.617 15.1106 123.617 14.9602 123.617 14.8097C123.617 14.6593 123.617 14.5088 123.58 14.3584L128.431 20.4137C128.544 20.5265 128.657 20.6394 128.732 20.677C128.845 20.7146 128.958 20.7522 129.146 20.7522H130.199V11.1991H128.431V16.6902C128.431 16.8407 128.431 16.9911 128.431 17.1416C128.431 17.292 128.469 17.4801 128.469 17.6305L123.58 11.5376C123.542 11.4624 123.467 11.4248 123.429 11.3871C123.392 11.3495 123.354 11.3119 123.279 11.2743C123.241 11.2367 123.166 11.2367 123.128 11.2367C123.053 11.2367 122.978 11.2367 122.903 11.2367H121.85V20.7898H123.617V15.2234Z" fill="white"/>
<path d="M138.436 20.3385C138.473 20.4513 138.586 20.5641 138.662 20.6394C138.774 20.7146 138.925 20.7522 139.075 20.7522H140.617L136.856 11.1991H134.825L131.064 20.7522H132.644C132.794 20.7522 132.945 20.7146 133.058 20.6018C133.17 20.5265 133.246 20.4137 133.283 20.3009L133.923 18.4579H137.759L138.436 20.3385ZM134.374 17.104L135.465 14.1703C135.54 14.0199 135.577 13.8318 135.653 13.6062C135.728 13.3805 135.803 13.1548 135.841 12.9292C135.916 13.1548 135.991 13.3805 136.066 13.6062C136.142 13.8318 136.217 13.9823 136.254 14.1703L137.345 17.1416H134.374V17.104Z" fill="white"/>
<path d="M143.701 19.1349V11.1991H141.67V20.7522H147.425V19.1349H143.701Z" fill="white"/>
<path d="M54.3386 26.5066L48.7722 40.6106H51.0665C51.3297 40.6106 51.5178 40.5354 51.6682 40.4225C51.8187 40.2721 51.9315 40.1592 52.0067 39.9712L52.947 37.2632H58.5886L59.5289 39.9712C59.6041 40.1592 59.7169 40.3097 59.8674 40.4225C60.0178 40.5354 60.2435 40.6106 60.5067 40.6106H62.801L57.2722 26.5066H54.3386ZM53.6616 35.1946L55.166 30.907C55.2412 30.6814 55.3541 30.4181 55.4293 30.1172C55.5421 29.8163 55.6174 29.4778 55.6926 29.1393C55.8054 29.4778 55.8806 29.8163 55.9935 30.1172C56.1063 30.4181 56.1815 30.6814 56.2943 30.907L57.7988 35.2323H53.6616V35.1946Z" fill="white"/>
<path d="M73.4823 37.1881C73.3695 37.0752 73.219 37 73.0686 37C72.9934 37 72.8805 37.0376 72.8053 37.0752C72.7301 37.1128 72.6549 37.1505 72.5797 37.2257C72.354 37.4137 72.1659 37.5642 71.9403 37.677C71.7146 37.7898 71.5266 37.9027 71.2633 37.9779C71.0376 38.0531 70.7744 38.0907 70.5111 38.1283C70.2478 38.1659 69.9469 38.1659 69.6084 38.1659C69.0443 38.1659 68.5177 38.0531 68.0288 37.8651C67.5398 37.6394 67.0885 37.3385 66.7124 36.9624C66.3363 36.5487 66.0354 36.0597 65.8474 35.458C65.6217 34.8562 65.5089 34.2168 65.5089 33.4646C65.5089 32.7124 65.6217 32.073 65.8097 31.4712C65.9978 30.8695 66.2987 30.3805 66.6372 30.0044C67.0133 29.5907 67.427 29.2898 67.9159 29.1018C68.4049 28.8761 68.969 28.8009 69.5708 28.8009C70.0974 28.8009 70.5487 28.8385 70.9248 28.9513C71.2633 29.0642 71.5642 29.177 71.7898 29.3274C72.0155 29.4779 72.2036 29.5907 72.3916 29.7035C72.5421 29.8164 72.7301 29.854 72.8805 29.854C73.031 29.854 73.1814 29.8164 73.2567 29.7412C73.3319 29.6659 73.4071 29.5907 73.4823 29.5155L74.4978 28.1991C74.2345 27.9358 73.896 27.6726 73.5575 27.4469C73.219 27.2212 72.8429 27.0332 72.4292 26.8827C72.0155 26.7323 71.5642 26.5819 71.1128 26.5066C70.6239 26.4314 70.135 26.3562 69.6084 26.3562C68.8938 26.3562 68.2544 26.4314 67.6151 26.5819C66.9757 26.7323 66.4115 26.958 65.885 27.2589C65.3584 27.5597 64.8695 27.9358 64.4558 28.3496C64.0421 28.7633 63.6659 29.2522 63.3651 29.7788C63.0642 30.3053 62.8385 30.8695 62.6881 31.5089C62.5376 32.1482 62.4624 32.7876 62.4624 33.5022C62.4624 34.5177 62.6128 35.4956 62.9513 36.3606C63.2898 37.2257 63.7412 37.9779 64.3429 38.6173C64.9447 39.2566 65.6593 39.7456 66.5244 40.1217C67.3894 40.4602 68.3297 40.6482 69.4204 40.6482C70.6239 40.6482 71.6394 40.4602 72.5044 40.0841C73.3695 39.708 74.0841 39.1814 74.6482 38.4668L73.4823 37.1881Z" fill="white"/>
<path d="M80.5908 26.5066L75.0244 40.6106H77.3187C77.5819 40.6106 77.77 40.5354 77.9204 40.4225C78.0709 40.2721 78.1837 40.1592 78.2589 39.9712L79.1992 37.2632H84.8408L85.781 39.9712C85.8563 40.1592 85.9691 40.3097 86.1195 40.4225C86.27 40.5354 86.4956 40.6106 86.7589 40.6106H89.0532L83.5244 26.5066H80.5908ZM79.9138 35.1946L81.4182 30.907C81.4934 30.6814 81.6063 30.4181 81.6815 30.1172C81.7943 29.8163 81.8695 29.4778 81.9448 29.1393C82.0576 29.4778 82.1328 29.8163 82.2456 30.1172C82.3585 30.4181 82.4337 30.6814 82.5465 30.907L84.051 35.2323H79.9138V35.1946Z" fill="white"/>
<path d="M101.389 28.5C100.75 27.8606 99.9603 27.3716 99.0576 27.0331C98.155 26.6946 97.1395 26.5066 96.0488 26.5066H90.52V40.6106H96.0488C97.1395 40.6106 98.155 40.4225 99.0576 40.084C99.9603 39.7455 100.75 39.2566 101.389 38.6172C102.029 37.9778 102.518 37.2632 102.894 36.3982C103.232 35.5331 103.42 34.5929 103.42 33.5398C103.42 32.5243 103.232 31.584 102.894 30.719C102.518 29.8539 102.029 29.1017 101.389 28.5ZM99.9979 35.5331C99.8098 36.1349 99.509 36.6238 99.1705 37.0376C98.7944 37.4513 98.343 37.7522 97.8165 37.9778C97.2899 38.2035 96.6882 38.3163 96.0112 38.3163H93.4913V28.7632H96.0112C96.6882 28.7632 97.2899 28.8761 97.8165 29.1017C98.343 29.3274 98.7944 29.6283 99.1705 30.042C99.5466 30.4557 99.8098 30.9446 99.9979 31.5464C100.186 32.1482 100.299 32.7876 100.299 33.5398C100.261 34.292 100.186 34.969 99.9979 35.5331Z" fill="white"/>
<path d="M105.677 40.573H114.892V38.3163H108.686V34.5929H113.5V32.4115H108.686V28.7632H114.892V26.5066H105.677V40.573Z" fill="white"/>
<path d="M130.237 26.5066C130.124 26.5066 130.049 26.5442 129.974 26.5442C129.898 26.5818 129.823 26.6194 129.748 26.6947C129.673 26.7699 129.635 26.8451 129.56 26.9579L125.611 34.4424C125.498 34.6681 125.385 34.8938 125.272 35.157C125.16 35.4203 125.047 35.646 124.971 35.9093C124.859 35.646 124.783 35.4203 124.671 35.157C124.558 34.9314 124.445 34.6681 124.332 34.4424L120.345 26.9203C120.27 26.8075 120.233 26.7323 120.157 26.657C120.082 26.5818 120.044 26.5442 119.969 26.5066C119.894 26.469 119.819 26.469 119.706 26.469C119.593 26.469 119.48 26.469 119.367 26.469H117.148V40.573H119.744V31.9225C119.744 31.7345 119.744 31.5464 119.706 31.3208C119.706 31.0951 119.668 30.907 119.668 30.6814L123.768 38.3539C123.881 38.5796 123.994 38.7301 124.182 38.8429C124.37 38.9557 124.558 38.9933 124.783 38.9933H125.197C125.648 38.9933 125.987 38.7677 126.213 38.3539L130.275 30.719C130.275 30.9447 130.237 31.1703 130.237 31.3584C130.237 31.584 130.237 31.7721 130.237 31.9225V40.573H132.832V26.469H130.613C130.463 26.5066 130.35 26.5066 130.237 26.5066Z" fill="white"/>
<path d="M144.191 26.6946C144.04 26.8451 143.927 26.9579 143.852 27.146L141.52 31.584C141.219 32.1482 140.956 32.7123 140.768 33.2013C140.693 32.938 140.58 32.6747 140.429 32.4115C140.317 32.1482 140.166 31.8849 140.016 31.584L137.646 27.146C137.571 26.9579 137.421 26.8075 137.27 26.6946C137.12 26.5818 136.894 26.5066 136.668 26.5066H134.073L139.301 35.1946V40.6106H142.272V35.1946L147.5 26.5066H144.867C144.529 26.5066 144.341 26.5818 144.191 26.6946Z" fill="white"/>
</svg>
